<?xml version="1.0" standalone="no"?>
<!DOCTYPE svg PUBLIC "-//W3C//DTD SVG 20010904//EN"
 "http://www.w3.org/TR/2001/REC-SVG-20010904/DTD/svg10.dtd">
<svg version="1.0" xmlns="http://www.w3.org/2000/svg"
 width="592.000000pt" height="391.000000pt" viewBox="0 0 592.000000 391.000000"
 preserveAspectRatio="xMidYMid meet">

<g transform="translate(0.000000,391.000000) scale(0.100000,-0.100000)"
fill="#000000" stroke="none">
<path d="M42 3893 c16 -19 4 -26 -24 -13 -22 11 -22 10 -3 -5 11 -8 25 -13 32
-11 7 3 13 1 13 -4 0 -6 4 -10 8 -10 5 0 9 7 9 15 0 8 -4 12 -9 9 -7 -5 -12 8
-10 27 1 3 -6 6 -13 6 -11 0 -12 -4 -3 -14z"/>
<path d="M8 3848 c6 -6 21 -12 33 -13 21 -2 21 -1 4 12 -24 17 -54 18 -37 1z"/>
<path d="M0 1257 l0 -1214 21 -19 c20 -18 47 -19 634 -22 l614 -2 -10 32 c-5
18 -9 34 -9 35 0 2 -10 3 -22 3 -18 0 -30 14 -53 60 -26 54 -55 85 -55 59 0
-25 -21 7 -32 48 -7 30 -17 47 -30 51 -10 2 -18 8 -18 13 0 5 -6 9 -13 9 -13
0 -37 53 -37 82 0 8 -11 20 -25 26 -14 6 -25 16 -25 21 0 5 -6 16 -12 23 -7 7
-22 30 -32 51 -11 20 -24 37 -31 37 -6 0 -18 18 -25 40 -7 22 -18 40 -24 40
-6 0 -22 24 -36 52 -14 28 -32 59 -41 67 -9 9 -24 37 -32 62 -20 57 -54 116
-72 123 -16 6 -45 68 -45 96 0 9 -11 22 -25 28 -14 7 -27 23 -30 39 -4 15 -11
38 -16 51 -5 13 -9 31 -9 41 0 10 -11 23 -24 29 -17 8 -28 24 -36 54 -19 73
-21 78 -33 78 -15 1 -47 63 -47 93 0 42 -12 67 -31 67 -15 0 -19 7 -19 33 0
39 -25 114 -45 134 -8 8 -15 21 -15 30 0 8 -10 36 -23 62 -13 25 -32 80 -42
121 -9 41 -27 95 -40 120 -12 25 -30 79 -40 120 -10 41 -27 93 -38 115 -13 27
-19 57 -18 93 1 31 -2 52 -8 52 -6 0 -14 18 -17 40 -4 24 -12 40 -20 40 -12 0
-14 -192 -14 -1213z"/>
<path d="M2489 123 c-13 -16 -12 -17 4 -4 16 13 21 21 13 21 -2 0 -10 -8 -17
-17z"/>
<path d="M1925 90 c-3 -6 1 -7 9 -4 18 7 21 14 7 14 -6 0 -13 -4 -16 -10z"/>
<path d="M1889 73 c-13 -16 -12 -17 4 -4 16 13 21 21 13 21 -2 0 -10 -8 -17
-17z"/>
<path d="M1860 46 c0 -2 7 -7 16 -10 8 -3 12 -2 9 4 -6 10 -25 14 -25 6z"/>
<path d="M1280 10 c0 -6 7 -10 15 -10 8 0 15 2 15 4 0 2 -7 6 -15 10 -8 3 -15
1 -15 -4z"/>
</g>
</svg>
