<?xml version="1.0" encoding="UTF-8"?>
<svg xmlns="http://www.w3.org/2000/svg" id="Layer_3" data-name="Layer 3" viewBox="0 0 64 64" width="512" height="512"><path d="M62,1H2A1,1,0,0,0,1,2V24a1,1,0,0,0,1,1H6a1,1,0,0,0,1-1V19H26a1,1,0,0,0,1,1h.323l1.747,4.37A1,1,0,0,0,30,25h1v3h2V25h1a1,1,0,0,0,.929-.629L36.677,20H37a1,1,0,0,0,1-1H57v5a1,1,0,0,0,1,1h4a1,1,0,0,0,1-1V2A1,1,0,0,0,62,1ZM61,3V7H3V3ZM3,23V9H5V23Zm4-6V15H26v2Zm29,1H28V14h8Zm-2.677,5H30.676l-1.2-3h5.046ZM27,12a1,1,0,0,0-1,1H7V9H57v4H38a1,1,0,0,0-1-1Zm11,5V15H57v2Zm21,6V9h2V23Z"/><path d="M55,54H47.444a3.967,3.967,0,0,0,.433-1.061A6.992,6.992,0,0,0,48,39.08V37a1,1,0,0,0-1-1H33a1,1,0,0,0-1,1V47a11.064,11.064,0,0,0-3.747-8.27L31.9,31.447A1,1,0,0,0,31,30H15a1,1,0,0,0-.895,1.447l3.642,7.283A11.064,11.064,0,0,0,14,47v2.4A7.721,7.721,0,0,0,15.529,54H9a1,1,0,0,0-1,1v4a1,1,0,0,0,1,1h3v3h2V60H50v3h2V60h3a1,1,0,0,0,1-1V55A1,1,0,0,0,55,54Zm-3-8a5.009,5.009,0,0,1-4,4.9V41.1A5.009,5.009,0,0,1,52,46Zm-6-8v2H44v2h2V52a2,2,0,0,1-2,2H36a2,2,0,0,1-2-2V42h8V40H34V38ZM32.556,54H30.471A7.721,7.721,0,0,0,32,49.4V52A3.959,3.959,0,0,0,32.556,54ZM16,49.4V47a9.043,9.043,0,0,1,3.6-7.2,1,1,0,0,0,.294-1.247L16.618,32H29.382l-3.277,6.553A1,1,0,0,0,26.4,39.8,9.043,9.043,0,0,1,30,47v2.4A5.717,5.717,0,0,1,27.666,54H18.334A5.717,5.717,0,0,1,16,49.4ZM54,58H10V56H54Z"/></svg>
