<?xml version="1.0" encoding="iso-8859-1"?>
<!-- Generator: Adobe Illustrator 19.0.0, SVG Export Plug-In . SVG Version: 6.00 Build 0)  -->
<svg version="1.1" id="Capa_1" xmlns="http://www.w3.org/2000/svg" xmlns:xlink="http://www.w3.org/1999/xlink" x="0px" y="0px"
	 viewBox="0 0 512 512" style="enable-background:new 0 0 512 512;" xml:space="preserve">
<g>
	<g>
		<g>
			<path d="M256,0C114.615,0,0,114.615,0,256s114.615,256,256,256c141.318-0.16,255.84-114.682,256-256C512,114.615,397.385,0,256,0
				z M256,494.933C124.041,494.933,17.067,387.959,17.067,256S124.041,17.067,256,17.067
				C387.898,17.215,494.785,124.102,494.933,256C494.933,387.959,387.959,494.933,256,494.933z"/>
			<path d="M256,213.333c-23.564,0-42.667,19.102-42.667,42.667s19.102,42.667,42.667,42.667
				c23.553-0.028,42.639-19.114,42.667-42.667C298.667,232.436,279.564,213.333,256,213.333z M256,281.6
				c-14.138,0-25.6-11.462-25.6-25.6s11.461-25.6,25.6-25.6c14.132,0.015,25.585,11.468,25.6,25.6
				C281.6,270.138,270.138,281.6,256,281.6z"/>
			<path d="M428.792,365.806C449.015,334.074,460.754,296.408,460.8,256c0-113.108-91.692-204.8-204.8-204.8
				c-14.891,0-29.404,1.604-43.392,4.622c-0.01,0.002-0.02,0.005-0.03,0.007C120.329,75.746,51.2,157.793,51.2,256
				c0,113.108,91.692,204.8,204.8,204.8c14.962-0.017,29.543-1.652,43.592-4.711c0.054-0.011,0.107-0.023,0.16-0.035
				c23.899-5.225,46.242-14.606,66.223-27.367c0.509-0.267,0.996-0.573,1.441-0.937c24.082-15.666,44.665-36.249,60.331-60.33
				C428.151,366.927,428.504,366.388,428.792,365.806z M304.55,437.381l-3.975-21.18c12.968-3.609,25.437-8.814,37.122-15.495
				l12.225,17.873C335.852,426.725,320.625,433.089,304.55,437.381z M297.412,399.353l-13.485-71.841
				c0.972-0.381,1.936-0.776,2.888-1.195l41.208,60.246C318.34,391.979,308.07,396.27,297.412,399.353z M285.858,307.727
				c-0.208,0.104-0.405,0.227-0.603,0.347c-4.072,2.293-8.44,4.118-13.032,5.411c-0.292,0.069-0.582,0.146-0.866,0.246
				c-4.901,1.3-10.046,2.002-15.356,2.002c-5.31,0-10.455-0.702-15.356-2.002c-0.284-0.099-0.574-0.177-0.866-0.246
				c-4.593-1.294-8.961-3.119-13.034-5.412c-0.198-0.12-0.394-0.242-0.601-0.346c-9.019-5.217-16.543-12.72-21.786-21.723
				c-0.206-0.435-0.441-0.853-0.716-1.245c-4.697-8.532-7.375-18.332-7.375-28.759c0-5.423,0.736-10.672,2.09-15.667
				c0.03-0.097,0.057-0.196,0.084-0.295c4.278-15.458,14.607-28.393,28.285-36.101c0.009-0.005,0.018-0.01,0.027-0.016
				c8.646-4.866,18.619-7.655,29.247-7.655c32.974,0.038,59.695,26.759,59.733,59.733c0,10.689-2.821,20.714-7.739,29.394
				c-0.087,0.15-0.182,0.296-0.259,0.451C302.489,294.919,294.93,302.479,285.858,307.727z M162.078,418.579L174.3,400.71
				c11.682,6.69,24.151,11.902,37.121,15.513l-3.971,21.157C191.375,433.089,176.148,426.725,162.078,418.579z M214.584,399.372
				c-10.659-3.086-20.929-7.381-30.611-12.803l41.195-60.227c0.956,0.419,1.923,0.816,2.899,1.197L214.584,399.372z M74.619,304.551
				l21.177-3.974c3.609,12.967,8.816,25.436,15.499,37.12l-17.875,12.226C85.275,335.852,78.911,320.626,74.619,304.551z
				 M68.267,256c0-10.865,0.935-21.51,2.706-31.869l109.074,20.47c-0.554,3.72-0.847,7.525-0.847,11.399
				c0,3.874,0.294,7.679,0.847,11.399l-109.074,20.47C69.201,277.51,68.267,266.865,68.267,256z M93.421,162.078l17.875,12.226
				c-6.683,11.684-11.89,24.152-15.499,37.119l-21.178-3.974C78.911,191.374,85.275,176.148,93.421,162.078z M184.464,228.064
				l-71.813-13.477c3.081-10.658,7.371-20.927,12.786-30.611l60.223,41.19C185.241,226.121,184.845,227.088,184.464,228.064z
				 M125.437,328.025c-5.415-9.683-9.705-19.953-12.786-30.611l71.813-13.477c0.381,0.975,0.778,1.942,1.197,2.898L125.437,328.025z
				 M207.45,74.619l3.971,21.158c-12.969,3.611-25.438,8.823-37.121,15.513l-12.222-17.869
				C176.148,85.275,191.375,78.911,207.45,74.619z M214.584,112.627l13.483,71.835c-0.976,0.381-1.943,0.777-2.898,1.197
				l-41.196-60.228C193.654,120.008,203.924,115.712,214.584,112.627z M349.878,93.485L337.7,111.29
				c-11.682-6.69-24.151-11.902-37.121-15.513l3.962-21.11C320.603,78.969,335.818,85.338,349.878,93.485z M297.416,112.628
				c10.659,3.086,20.929,7.382,30.611,12.803l-41.195,60.228c-0.956-0.419-1.923-0.816-2.899-1.197L297.416,112.628z
				 M437.334,207.458l-21.13,3.966c-3.609-12.967-8.816-25.436-15.499-37.12l17.811-12.182
				C426.661,176.182,433.031,191.396,437.334,207.458z M443.733,256c0,10.865-0.935,21.51-2.706,31.869l-109.086-20.472
				c0.557-3.719,0.854-7.523,0.859-11.397c0-3.874-0.294-7.679-0.847-11.399l109.042-20.464
				C442.776,234.494,443.721,245.137,443.733,256z M386.563,183.976c5.415,9.683,9.705,19.953,12.786,30.611l-71.812,13.477
				c-0.381-0.975-0.777-1.943-1.197-2.898L386.563,183.976z M327.511,283.932l71.838,13.482
				c-3.081,10.658-7.371,20.928-12.786,30.611l-60.247-41.206C326.735,285.866,327.13,284.903,327.511,283.932z M416.203,300.577
				l21.177,3.974c-4.292,16.074-10.656,31.301-18.802,45.371l-17.875-12.226C407.388,326.013,412.594,313.544,416.203,300.577z
				 M409.295,147.756l-91.532,62.604c-4.546-6.141-9.984-11.579-16.125-16.125l62.607-91.53
				C381.694,115.055,396.945,130.306,409.295,147.756z M287.87,71.007l-20.467,109.041c-3.721-0.554-7.528-0.848-11.403-0.848
				c-3.876,0-7.682,0.294-11.403,0.848L224.123,70.974c10.362-1.773,21.009-2.708,31.877-2.708
				C266.865,68.279,277.511,69.225,287.87,71.007z M147.709,102.636l62.654,91.599c-6.141,4.545-11.58,9.983-16.125,16.125
				l-91.601-62.651C114.988,130.247,130.247,114.988,147.709,102.636z M102.636,364.292l91.601-62.651
				c4.546,6.141,9.984,11.579,16.126,16.125l-62.654,91.599C130.247,397.012,114.988,381.753,102.636,364.292z M224.123,441.026
				l20.473-109.073c3.721,0.554,7.528,0.848,11.403,0.848c3.875-0.004,7.68-0.302,11.401-0.859l20.475,109.085
				c-10.362,1.773-21.009,2.708-31.876,2.708C245.133,443.733,234.485,442.798,224.123,441.026z M364.291,409.364l-62.673-91.628
				c6.137-4.544,11.572-9.979,16.116-16.116l91.629,62.671C397.012,381.754,381.753,397.012,364.291,409.364z"/>
		</g>
	</g>
</g>
<g>
</g>
<g>
</g>
<g>
</g>
<g>
</g>
<g>
</g>
<g>
</g>
<g>
</g>
<g>
</g>
<g>
</g>
<g>
</g>
<g>
</g>
<g>
</g>
<g>
</g>
<g>
</g>
<g>
</g>
</svg>
