<?xml version="1.0" encoding="iso-8859-1"?>
<!-- Generator: Adobe Illustrator 19.0.0, SVG Export Plug-In . SVG Version: 6.00 Build 0)  -->
<svg version="1.1" id="Capa_1" xmlns="http://www.w3.org/2000/svg" xmlns:xlink="http://www.w3.org/1999/xlink" x="0px" y="0px"
	 viewBox="0 0 512 512" style="enable-background:new 0 0 512 512;" xml:space="preserve">
<g>
	<g>
		<path d="M250.435,139.614c-17.438,0-31.625,14.172-31.625,31.59c0,17.418,14.187,31.59,31.625,31.59s31.626-14.171,31.626-31.59
			S267.873,139.614,250.435,139.614z M250.435,187.794c-9.167,0-16.625-7.442-16.625-16.59s7.458-16.59,16.625-16.59
			c9.168,0,16.626,7.443,16.626,16.59C267.061,180.351,259.603,187.794,250.435,187.794z"/>
	</g>
</g>
<g>
	<g>
		<g>
			<path d="M347.152,188.523C347.152,188.464,347.151,188.581,347.152,188.523L347.152,188.523z"/>
			<path d="M362.161,159.833C362.161,160.038,362.162,159.628,362.161,159.833L362.161,159.833z"/>
			<path d="M370.929,248.5c-3.011,0-5.946,0.33-8.777,0.942l0.009-89.609c0-4.142-3.357-7.5-7.5-7.5s-7.5,3.358-7.5,7.5
				l-0.009,28.69c-0.374,40.67-40.504,75.242-91.676,78.833c-4.132,0.29-7.246,3.875-6.956,8.006
				c0.277,3.954,3.57,6.976,7.474,6.976c0.177,0,0.354-0.006,0.533-0.019c28.467-1.998,54.916-12.524,74.474-29.641
				c6.289-5.504,11.693-11.537,16.151-17.97v21.304c-10.718,7.516-17.745,19.954-17.745,34.01v86.84
				c-4.878,7.073-10.557,13.405-16.877,18.901c-0.196,0.156-0.385,0.32-0.564,0.494c-17.988,15.41-41.04,24.133-65.393,24.133h-0.15
				c-55.46,0-100.58-45.12-100.58-100.58v-85.064c5.219,7.511,11.738,14.478,19.467,20.711
				c16.079,12.974,36.238,21.744,58.299,25.362c0.411,0.068,0.819,0.1,1.223,0.1c3.608,0,6.789-2.611,7.393-6.287
				c0.67-4.087-2.1-7.944-6.188-8.615c-19.503-3.199-37.244-10.888-51.309-22.236c-18.627-15.021-28.885-34.849-28.885-55.832
				v-26.796c2.818,14.553,15.663,25.58,31.044,25.58c17.438,0,31.626-14.171,31.626-31.59s-14.188-31.59-31.626-31.59
				c-15.381,0-28.226,11.027-31.044,25.581V115.58c0-27.565,11.149-52.573,29.172-70.759c0.111-0.112,0.22-0.228,0.332-0.34
				c0.118-0.118,0.239-0.232,0.357-0.349C193.901,26.134,218.922,15,246.501,15c0.557,0,1.112,0.011,1.667,0.02
				c0.289,0.005,0.579,0.004,0.867,0.011c0.679,0.017,1.356,0.044,2.032,0.074c0.162,0.007,0.324,0.011,0.486,0.019
				c0.599,0.029,1.195,0.069,1.792,0.109c0.25,0.017,0.502,0.029,0.751,0.048c0.48,0.036,0.959,0.081,1.438,0.123
				c0.376,0.033,0.752,0.063,1.127,0.1c0.344,0.034,0.686,0.076,1.028,0.113c0.52,0.057,1.04,0.113,1.557,0.178
				c0.19,0.024,0.378,0.052,0.567,0.077c0.683,0.09,1.365,0.183,2.043,0.287c0.016,0.002,0.032,0.005,0.048,0.008
				c48.208,7.406,85.246,49.165,85.246,99.413c0,0.059,0.007,0.116,0.009,0.174v11.912c0,4.142,3.357,7.5,7.5,7.5s7.5-3.358,7.5-7.5
				V115.5c0-30.844-12.03-59.851-33.879-81.679c-18.256-18.219-41.53-29.594-66.702-32.848c-0.129-0.017-0.258-0.036-0.388-0.052
				c-0.682-0.086-1.366-0.161-2.051-0.235c-0.311-0.034-0.62-0.071-0.932-0.103c-0.513-0.051-1.029-0.093-1.543-0.137
				c-0.47-0.041-0.94-0.086-1.412-0.121c-0.374-0.028-0.75-0.047-1.125-0.072c-0.6-0.039-1.2-0.08-1.802-0.11
				c-0.288-0.014-0.578-0.021-0.867-0.033c-0.678-0.028-1.356-0.058-2.038-0.074c-0.441-0.011-0.884-0.011-1.325-0.017
				C247.588,0.013,247.081,0,246.571,0h-0.15c-31.655,0-60.375,12.795-81.27,33.481c-0.135,0.134-0.274,0.264-0.408,0.399
				c-0.133,0.133-0.261,0.269-0.393,0.402c-20.703,20.88-33.509,49.582-33.509,81.218v0.08v69.632
				c-18.038,4.583-31.34,21.074-31.34,40.238v88.45c0,21.315,16.139,38.922,36.875,41.259c4.122,12.801,10.418,24.634,18.455,35.063
				v13.404c0,4.142,3.357,7.5,7.5,7.5c3.327,0,6.144-2.168,7.125-5.167c12.459,11.143,27.339,19.627,43.745,24.559v10.693
				c0,11.943-9.721,21.66-21.71,21.66c-11.943,0-21.66-9.717-21.66-21.66V436c0-4.142-3.357-7.5-7.5-7.5s-7.5,3.358-7.5,7.5v5.21
				c0,20.214,16.445,36.66,36.7,36.66c20.22,0,36.67-16.446,36.67-36.66v-7.261c5.937,0.944,12.021,1.441,18.22,1.441h0.15
				c1.585,0,3.164-0.044,4.739-0.108v40.058c0,20.214,16.445,36.66,36.7,36.66c20.22,0,36.67-16.446,36.67-36.66v-70.31
				c3.04-2.79,5.934-5.762,8.682-8.891c6.65,14.084,20.986,23.855,37.566,23.855h0.05c22.896,0,41.522-18.626,41.522-41.522v-88.451
				C412.501,267.126,393.874,248.5,370.929,248.5z M176.885,138.555c9.168,0,16.626,7.442,16.626,16.59
				c0,9.147-7.458,16.59-16.626,16.59c-9.167,0-16.625-7.442-16.625-16.59C160.26,145.997,167.717,138.555,176.885,138.555z
				 M114.501,313.9v-88.45c0-10.901,6.734-20.447,16.34-24.474V319.81c0,6.536,0.554,12.945,1.602,19.188
				C122.018,335.422,114.501,325.526,114.501,313.9z M309.681,475.34c0,11.943-9.721,21.66-21.71,21.66
				c-11.943,0-21.66-9.717-21.66-21.66v-41.647c15.573-2.682,30.305-8.503,43.37-17.023V475.34z M397.501,378.473
				c0,14.624-11.897,26.522-26.522,26.522h-0.05c-14.625,0-26.522-11.898-26.522-26.522v-88.451
				c0-14.624,11.897-26.522,26.572-26.522c14.625,0,26.522,11.898,26.522,26.522V378.473z"/>
		</g>
	</g>
</g>
<g>
</g>
<g>
</g>
<g>
</g>
<g>
</g>
<g>
</g>
<g>
</g>
<g>
</g>
<g>
</g>
<g>
</g>
<g>
</g>
<g>
</g>
<g>
</g>
<g>
</g>
<g>
</g>
<g>
</g>
</svg>
